# Blender 4.1.1
# www.blender.org
mtllib choice.mtl
o Cube
v 2.139733 3.043682 -0.158867
v 1.944346 2.854676 -0.144360
v 2.139733 -3.043682 -0.158867
v 1.944346 -2.854676 -0.144360
v 2.139733 3.043682 0.158867
v 1.944346 2.854676 0.144360
v 2.139733 -3.043682 0.158867
v 1.944346 -2.854676 0.144360
v -2.139733 3.043682 -0.158867
v -1.944346 2.854676 -0.144360
v -2.139733 -3.043682 -0.158867
v -1.944346 -2.854676 -0.144360
v -2.139733 3.043682 0.158867
v -1.944346 2.854676 0.144360
v -2.139733 -3.043682 0.158867
v -1.944346 -2.854676 0.144360
v -1.944346 2.854676 0.158867
v 1.944346 2.854676 0.158867
v -1.944346 -2.854676 0.158867
v 1.944346 -2.854676 0.158867
v 1.944346 2.854676 -0.158867
v -1.944346 2.854676 -0.158867
v -1.944346 -2.854676 -0.158867
v 1.944346 -2.854676 -0.158867
v 0.280055 -2.854676 0.144360
v -1.944346 -0.411176 0.144360
v -0.280055 2.854676 0.144360
v 1.944346 0.411176 0.144360
v 1.944346 -0.411176 -0.144360
v -0.280055 -2.854676 -0.144360
v 0.280055 2.854676 -0.144360
v -1.944346 0.411176 -0.144360
vn -0.0000 1.0000 -0.0000
vn -0.0000 -0.0000 1.0000
vn -1.0000 -0.0000 -0.0000
vn -0.0000 -1.0000 -0.0000
vn 1.0000 -0.0000 -0.0000
vn -0.0000 -0.0000 -1.0000
vt 0.875000 0.500000
vt 0.625000 0.750000
vt 0.625000 0.500000
vt 0.625000 1.000000
vt 0.617238 0.761414
vt 0.375000 1.000000
vt 0.382762 0.761414
vt 0.382762 0.988586
vt 0.625000 0.000000
vt 0.375000 0.250000
vt 0.375000 0.000000
vt 0.375000 0.500000
vt 0.125000 0.750000
vt 0.125000 0.500000
vt 0.375000 0.750000
vt 0.625000 0.250000
vt 0.617238 0.261414
vt 0.382762 0.488586
vt 0.768004 0.750000
vt 0.875000 0.750000
vt 0.731995 0.500000
vt 0.518004 0.250000
vt 0.481996 0.000000
vt 0.268005 0.750000
vt 0.231995 0.500000
vt 0.518004 0.750000
vt 0.481996 0.500000
vt 0.625000 0.605186
vt 0.625000 0.606996
vt 0.731996 0.606996
vt 0.875000 0.644814
vt 0.875000 0.643004
vt 0.768004 0.643005
vt 0.375000 0.105186
vt 0.375000 0.106996
vt 0.481996 0.106996
vt 0.625000 0.144814
vt 0.625000 0.143004
vt 0.518004 0.143004
vt 0.125000 0.605186
vt 0.125000 0.606996
vt 0.231996 0.606996
vt 0.375000 0.644814
vt 0.375000 0.643004
vt 0.268004 0.643005
vt 0.375000 0.605186
vt 0.375000 0.606995
vt 0.481996 0.606996
vt 0.625000 0.644814
vt 0.625000 0.643004
vt 0.518004 0.643004
vt 0.617238 0.988586
vt 0.382762 0.261414
vt 0.617238 0.488586
vt 0.875000 0.606995
vt 0.875000 0.605186
vt 0.625000 0.106996
vt 0.625000 0.105186
vt 0.375000 0.143004
vt 0.375000 0.144814
vt 0.125000 0.643004
vt 0.125000 0.644814
s 0
usemtl Material
f 9/1/1 5/2/1 1/3/1
f 5/2/2 13/4/2 18/5/2
f 15/6/2 20/7/2 19/8/2
f 13/9/3 11/10/3 15/11/3
f 3/12/4 15/13/4 11/14/4
f 1/3/5 7/15/5 3/12/5
f 9/16/6 1/3/6 22/17/6
f 11/10/6 24/18/6 3/12/6
f 10/1/4 27/19/4 14/20/4
f 6/2/4 31/21/4 2/3/4
f 32/22/5 14/9/5 26/23/5
f 26/23/5 12/10/5 32/22/5
f 25/24/1 4/12/1 30/25/1
f 30/25/1 16/13/1 25/24/1
f 2/3/3 28/26/3 6/2/3
f 8/15/3 29/27/3 4/12/3
f 21/28/4 2/29/4 31/30/4
f 17/31/4 14/32/4 27/33/4
f 19/34/5 16/35/5 26/36/5
f 22/37/5 10/38/5 32/39/5
f 23/40/1 12/41/1 30/42/1
f 20/43/1 8/44/1 25/45/1
f 24/46/3 4/47/3 29/48/3
f 18/49/3 6/50/3 28/51/3
f 9/1/1 13/20/1 5/2/1
f 18/5/2 20/7/2 7/15/2
f 13/4/2 15/6/2 19/8/2
f 13/4/2 19/8/2 17/52/2
f 18/5/2 7/15/2 5/2/2
f 13/4/2 17/52/2 18/5/2
f 15/6/2 7/15/2 20/7/2
f 13/9/3 9/16/3 11/10/3
f 3/12/4 7/15/4 15/13/4
f 1/3/5 5/2/5 7/15/5
f 23/53/6 11/10/6 22/17/6
f 11/10/6 9/16/6 22/17/6
f 1/3/6 3/12/6 21/54/6
f 3/12/6 24/18/6 21/54/6
f 1/3/6 21/54/6 22/17/6
f 11/10/6 23/53/6 24/18/6
f 10/1/4 31/21/4 27/19/4
f 6/2/4 27/19/4 31/21/4
f 32/22/5 10/16/5 14/9/5
f 26/23/5 16/11/5 12/10/5
f 25/24/1 8/15/1 4/12/1
f 30/25/1 12/14/1 16/13/1
f 2/3/3 29/27/3 28/26/3
f 8/15/3 28/26/3 29/27/3
f 10/55/4 22/56/4 31/30/4
f 22/56/4 21/28/4 31/30/4
f 6/50/4 18/49/4 27/33/4
f 18/49/4 17/31/4 27/33/4
f 26/36/5 14/57/5 17/58/5
f 17/58/5 19/34/5 26/36/5
f 32/39/5 12/59/5 23/60/5
f 23/60/5 22/37/5 32/39/5
f 30/42/1 4/47/1 24/46/1
f 24/46/1 23/40/1 30/42/1
f 25/45/1 16/61/1 19/62/1
f 19/62/1 20/43/1 25/45/1
f 29/48/3 2/29/3 21/28/3
f 21/28/3 24/46/3 29/48/3
f 28/51/3 8/44/3 20/43/3
f 20/43/3 18/49/3 28/51/3
