# Blender 4.1.1
# www.blender.org
mtllib goal.mtl
o 立方体.001
v -1.617455 0.984447 0.067156
v 0.000000 1.472693 0.067156
v -1.617455 0.984447 -0.067156
v 0.000000 1.472693 -0.067156
v 0.000000 0.469857 0.067156
v 0.006757 0.984447 0.067156
v 0.000000 0.469857 -0.067156
v 0.006757 0.984447 -0.067156
v -0.159932 -1.489842 0.159932
v -0.159932 1.489842 0.159932
v -0.159932 -1.489842 -0.159932
v -0.159932 1.489842 -0.159932
v 0.159932 -1.489842 0.159932
v 0.159932 1.489842 0.159932
v 0.159932 -1.489842 -0.159932
v 0.159932 1.489842 -0.159932
vn -0.2890 0.9573 -0.0000
vn -0.0000 -0.0000 -1.0000
vn 0.9999 -0.0131 -0.0000
vn -0.0000 -0.0000 1.0000
vn -0.3032 -0.9529 -0.0000
vn 0.9999 0.0138 -0.0000
vn -1.0000 -0.0000 -0.0000
vn 1.0000 -0.0000 -0.0000
vn -0.0000 -1.0000 -0.0000
vn -0.0000 1.0000 -0.0000
vt 0.333295 0.000115
vt 0.166705 0.166705
vt 0.166705 0.000115
vt 0.333295 0.166705
vt 0.166705 0.333295
vt 0.333295 0.333295
vt 0.166705 0.499885
vt 0.333295 0.666474
vt 0.166705 0.666474
vt 0.000115 0.499885
vt 0.000115 0.333295
vt 0.499885 0.333295
vt 0.333295 0.499885
vt 0.833295 0.000115
vt 0.666705 0.166705
vt 0.666705 0.000115
vt 0.833295 0.166705
vt 0.666705 0.333295
vt 0.833295 0.333295
vt 0.666705 0.499885
vt 0.833295 0.499885
vt 0.666705 0.666474
vt 0.500115 0.499885
vt 0.500115 0.333295
vt 0.999885 0.333295
vt 0.499885 0.499885
vt 0.833295 0.666474
vt 0.999885 0.499885
s 0
usemtl マテリアル
f 2/1/1 3/2/1 1/3/1
f 4/4/2 7/5/2 3/2/2
f 8/6/3 5/7/3 7/5/3
f 5/7/4 2/8/4 1/9/4
f 7/5/5 1/10/5 3/11/5
f 4/12/6 6/13/6 8/6/6
f 10/14/7 11/15/7 9/16/7
f 12/17/2 15/18/2 11/15/2
f 16/19/8 13/20/8 15/18/8
f 14/21/4 9/22/4 13/20/4
f 15/18/9 9/23/9 11/24/9
f 12/25/10 14/21/10 16/19/10
f 2/1/1 4/4/1 3/2/1
f 4/4/2 8/6/2 7/5/2
f 8/6/3 6/13/3 5/7/3
f 5/7/4 6/13/4 2/8/4
f 7/5/5 5/7/5 1/10/5
f 4/12/6 2/26/6 6/13/6
f 10/14/7 12/17/7 11/15/7
f 12/17/2 16/19/2 15/18/2
f 16/19/8 14/21/8 13/20/8
f 14/21/4 10/27/4 9/22/4
f 15/18/9 13/20/9 9/23/9
f 12/25/10 10/28/10 14/21/10
